<?xml version="1.0" standalone="no"?><!-- Generator: Gravit.io --><svg xmlns="http://www.w3.org/2000/svg" xmlns:xlink="http://www.w3.org/1999/xlink" style="isolation:isolate" viewBox="641.5 4300 804 193.833" width="804" height="193.833"><path d=" M 642.333 4342.333 L 694.833 4342.333 L 694.833 4342.333 Q 706.667 4342.333 715.083 4350.75 L 715.083 4350.75 L 715.083 4350.75 Q 723.5 4359.167 723.5 4371 L 723.5 4371 L 723.5 4371 Q 723.5 4382.833 715.083 4391.25 L 715.083 4391.25 L 715.083 4391.25 Q 706.667 4399.667 694.833 4399.667 L 694.833 4399.667 L 653.667 4399.667 L 653.667 4443 L 642.333 4443 L 642.333 4342.333 L 642.333 4342.333 Z  M 653.667 4388.333 L 694.833 4388.333 L 694.833 4388.333 Q 702 4388.333 707.083 4383.25 L 707.083 4383.25 L 707.083 4383.25 Q 712.167 4378.167 712.167 4371 L 712.167 4371 L 712.167 4371 Q 712.167 4363.833 707.083 4358.75 L 707.083 4358.75 L 707.083 4358.75 Q 702 4353.667 694.833 4353.667 L 694.833 4353.667 L 653.667 4353.667 L 653.667 4388.333 L 653.667 4388.333 Z  M 834 4428.25 L 834 4428.25 L 834 4428.25 Q 819.167 4443 798.333 4443 L 798.333 4443 L 798.333 4443 Q 777.5 4443 762.75 4428.25 L 762.75 4428.25 L 762.75 4428.25 Q 748 4413.5 748 4392.667 L 748 4392.667 L 748 4392.667 Q 748 4371.833 762.75 4357 L 762.75 4357 L 762.75 4357 Q 777.5 4342.167 798.333 4342.167 L 798.333 4342.167 L 798.333 4342.167 Q 819.167 4342.167 834 4357 L 834 4357 L 834 4357 Q 848.833 4371.833 848.833 4392.667 L 848.833 4392.667 L 848.833 4392.667 Q 848.833 4413.5 834 4428.25 Z  M 825.917 4365.083 L 825.917 4365.083 L 825.917 4365.083 Q 814.5 4353.667 798.417 4353.667 L 798.417 4353.667 L 798.417 4353.667 Q 782.333 4353.667 770.833 4365.083 L 770.833 4365.083 L 770.833 4365.083 Q 759.333 4376.5 759.333 4392.583 L 759.333 4392.583 L 759.333 4392.583 Q 759.333 4408.667 770.833 4420.167 L 770.833 4420.167 L 770.833 4420.167 Q 782.333 4431.667 798.417 4431.667 L 798.417 4431.667 L 798.417 4431.667 Q 814.5 4431.667 825.917 4420.167 L 825.917 4420.167 L 825.917 4420.167 Q 837.333 4408.667 837.333 4392.583 L 837.333 4392.583 L 837.333 4392.583 Q 837.333 4376.5 825.917 4365.083 Z  M 873.167 4342.333 L 925.667 4342.333 L 925.667 4342.333 Q 937.5 4342.333 945.917 4350.75 L 945.917 4350.75 L 945.917 4350.75 Q 954.333 4359.167 954.333 4371 L 954.333 4371 L 954.333 4371 Q 954.333 4382.833 945.917 4391.25 L 945.917 4391.25 L 945.917 4391.25 Q 937.5 4399.667 925.667 4399.667 L 925.667 4399.667 L 884.5 4399.667 L 884.5 4443 L 873.167 4443 L 873.167 4342.333 L 873.167 4342.333 Z  M 884.5 4388.333 L 925.667 4388.333 L 925.667 4388.333 Q 932.833 4388.333 937.917 4383.25 L 937.917 4383.25 L 937.917 4383.25 Q 943 4378.167 943 4371 L 943 4371 L 943 4371 Q 943 4363.833 937.917 4358.75 L 937.917 4358.75 L 937.917 4358.75 Q 932.833 4353.667 925.667 4353.667 L 925.667 4353.667 L 884.5 4353.667 L 884.5 4388.333 L 884.5 4388.333 Z  M 1054 4399.667 L 1054 4342.333 L 1065.333 4342.333 L 1065.333 4399.667 L 1065.333 4399.667 Q 1065.333 4417.667 1052.667 4430.333 L 1052.667 4430.333 L 1052.667 4430.333 Q 1040 4443 1022.083 4443 L 1022.083 4443 L 1022.083 4443 Q 1004.167 4443 991.5 4430.333 L 991.5 4430.333 L 991.5 4430.333 Q 978.833 4417.667 978.833 4399.667 L 978.833 4399.667 L 978.833 4342.333 L 990.167 4342.333 L 990.167 4399.667 L 990.167 4399.667 Q 990.167 4412.833 999.583 4422.25 L 999.583 4422.25 L 999.583 4422.25 Q 1009 4431.667 1022.167 4431.667 L 1022.167 4431.667 L 1022.167 4431.667 Q 1035.333 4431.667 1044.667 4422.25 L 1044.667 4422.25 L 1044.667 4422.25 Q 1054 4412.833 1054 4399.667 L 1054 4399.667 L 1054 4399.667 Z  M 1090 4342.333 L 1101.333 4342.333 L 1101.333 4431.667 L 1176.667 4431.667 L 1176.667 4443 L 1090 4443 L 1090 4342.333 L 1090 4342.333 Z  M 1275.833 4399.667 L 1275.833 4342.333 L 1287.167 4342.333 L 1287.167 4399.667 L 1287.167 4399.667 Q 1287.167 4417.667 1274.5 4430.333 L 1274.5 4430.333 L 1274.5 4430.333 Q 1261.833 4443 1243.917 4443 L 1243.917 4443 L 1243.917 4443 Q 1226 4443 1213.333 4430.333 L 1213.333 4430.333 L 1213.333 4430.333 Q 1200.667 4417.667 1200.667 4399.667 L 1200.667 4399.667 L 1200.667 4342.333 L 1212 4342.333 L 1212 4399.667 L 1212 4399.667 Q 1212 4412.833 1221.417 4422.25 L 1221.417 4422.25 L 1221.417 4422.25 Q 1230.833 4431.667 1244 4431.667 L 1244 4431.667 L 1244 4431.667 Q 1257.167 4431.667 1266.5 4422.25 L 1266.5 4422.25 L 1266.5 4422.25 Q 1275.833 4412.833 1275.833 4399.667 L 1275.833 4399.667 L 1275.833 4399.667 Z  M 1407.833 4342.333 L 1407.833 4342.333 L 1419.167 4342.333 L 1419.167 4443 L 1407.833 4443 L 1407.833 4358.5 L 1365.5 4400.667 L 1323.167 4358.333 L 1323.167 4443 L 1311.833 4443 L 1311.833 4342.333 L 1323.167 4342.333 L 1323.333 4342.333 L 1365.5 4384.5 L 1407.833 4342.333 L 1407.833 4342.333 Z " fill-rule="evenodd" fill="rgb(0,0,0)"/></svg>